<svg version="1.0" xmlns="http://www.w3.org/2000/svg" viewBox="0 0 630 630">
    <path
        d="M278.5 1.6C207.5 10.1 142.3 41.7 92 92 41.2 142.7 9.8 208 1.5 280c-2 17.7-2 52.3 0 70C9.8 422 41.2 487.3 92 538c50.7 50.8 116 82.2 188 90.5 17.7 2 52.3 2 70 0 72-8.3 137.3-39.7 188-90.5 50.8-50.7 82.2-116 90.5-188 2-17.7 2-52.3 0-70-8.1-70.1-38-133.7-87.1-185l-10.7-11-5.1 4.8c-2.8 2.6-7.3 6.3-9.9 8.1-5.3 3.6-19.6 10.5-23.9 11.6-2.6.7-2.8.5-2.8-2.3 0-8.5 5.8-29 11.3-39.9l2.7-5.2-12.8-8.4C447.3 24.3 401 7.4 350 1.5c-17-1.9-54.8-1.8-71.5.1zM335.2 51c1.7 3.4 3.4 5 6.6 6.4 2.3 1.1 4.2 2.3 4.2 2.8 0 .4-2 1.8-4.4 3-4.3 2.1-5.6 3.5-7.6 9-.5 1.6-1.4 2.8-1.9 2.8s-1.2-1.2-1.6-2.8c-1.1-4.6-3.4-7.2-8.3-9.3l-4.7-2.1 2.4-1.9c1.3-1 2.9-1.9 3.5-1.9 1.9 0 5.4-4.2 6.7-7.8.6-1.8 1.5-3.2 2-3 .5.2 1.9 2.3 3.1 4.8zm-89.8 16.7c2.8 8.4 5.1 11.1 11.6 14 3.4 1.4 5.9 3.1 5.7 3.7-.2.6-2.6 1.9-5.3 2.9-6.7 2.5-8.6 4.6-11.3 12.2-2.5 7.1-3.7 8-4.7 3.7-.4-1.5-1.5-4.8-2.6-7.4-2-4.7-4.4-6.5-13-9.7-1.6-.6-2.8-1.5-2.8-2.1 0-.5 3-2.5 6.8-4.2 6.7-3.3 6.7-3.3 9.6-10.6 1.6-3.9 3.2-7.2 3.6-7.2.5 0 1.6 2.1 2.4 4.7zm164.1 8.4c6.4 3 14 10.6 16.7 16.5 7.4 16.8 1.5 34.6-14.8 44.7-12 7.4-30 4.9-40.5-5.6-18.2-18.3-11-49.4 13.4-57.3 6.4-2.1 19-1.3 25.2 1.7zM176 103.2c7 1.1 20.1 5.8 25.9 9.1 21.6 12.5 37.9 35.3 43.5 60.7 1.5 6.9 3.6 24 2.9 24-.2 0-4.2-3-9-6.6-10.9-8.2-26.1-18.3-32.8-21.7-5.3-2.7-6.7-4.5-14.3-18.7-3.9-7.3-8-18-10.2-26.8-1.3-5.2-3.4-5.4-5.1-.5-1.8 5.5-1.5 22.9.5 27.7.9 2.1 1.6 4 1.6 4.2 0 .2-3-1.1-6.7-3-3.8-1.8-12.9-5.6-20.3-8.3-28.5-10.6-30-10.9-30-7 0 4.3 6.6 8.8 33.5 22.7 25.2 13 42.3 22.9 54.1 31.3 11.1 8 20.4 15.5 20.4 16.6 0 1-22.5 9.7-32.1 12.3-6.7 1.8-11 2.2-21.4 2.2-11.4 0-13.9-.3-20.6-2.6-15.8-5.5-27.4-14.7-36.9-29-12.8-19.4-18.5-40.9-17.8-67.3.4-14.3-.9-13.1 18.1-17 21.2-4.3 40.3-5.1 56.7-2.3zm123.9 32.6c2.4 6.7 5.1 9.6 10.6 11.5 2.1.8 4 1.8 4.2 2.3.2.6-1.9 2.1-4.7 3.4-6.1 2.9-7.6 4.4-9.9 10.6-1 2.7-2.3 5-2.8 5.1-.6.2-2-2.3-3.2-5.6-2.5-6.8-2.9-7.3-9.6-9.9-2.7-1.1-5.1-2.4-5.3-3-.2-.6 2-2.1 4.8-3.3 5.9-2.6 8.3-5.2 10.5-12 .9-2.7 2-4.9 2.4-4.9.5 0 1.8 2.6 3 5.8zm202.7 5.7c.8 1.9 2.7 4.1 4.4 5 3.8 2 3.8 3-.1 5-1.7.9-3.7 3.1-4.5 5.1-.8 1.9-1.6 3.4-1.9 3.4-.3 0-1.1-1.5-1.9-3.4-.8-1.8-2.8-4.2-4.5-5.2-3.9-2.3-3.9-3-.1-4.9 1.7-.9 3.6-3.1 4.4-5 .8-1.9 1.8-3.5 2.1-3.5.3 0 1.3 1.6 2.1 3.5zM461.3 179c2 4.9 2.8 5.8 7.4 8 2.9 1.4 5.3 2.8 5.3 3.2 0 .4-2.4 1.9-5.2 3.5-4.6 2.4-5.6 3.5-7.5 8.3-1.2 3-2.6 5.6-3.2 5.8-.5.2-1.5-1.5-2.1-3.7-1.4-5.4-4.7-9-9.9-11.1-6.3-2.4-6-3.2 2.2-6.5 3.2-1.2 4.2-2.4 6.4-7.5 1.5-3.3 3.1-5.9 3.6-5.7.4.1 1.8 2.7 3 5.7zM367 194c14.1 4.8 27.9 11 30.3 13.8 2.5 2.8 1.9 7.3-1.3 9-2.3 1.3-3.5 1-15.7-4.1-7.2-3.1-17.8-7-23.5-8.7-5.6-1.8-10.9-3.8-11.7-4.5-2.1-2.1-1.6-6.6 1-8.8 2.9-2.3 5.4-1.9 20.9 3.3zm185.5 5c5.5.5 14.6 1.9 20.3 3.1 9.3 2 10.3 2.4 10.9 4.7 1 4.1-.4 30.2-2.2 38.4-5.6 26.9-22.7 46.2-46.1 52.2-7.1 1.8-22.7 2.1-28.8.5-9.8-2.6-14.6-4.1-15.1-4.8-.7-1.2 11.5-16 18.4-22.3 6.6-6.1 18.4-14.7 37.2-27.1 15.3-10 20.1-15.6 14.1-16.5-2.3-.3-28.8 12-34.3 15.8-1.6 1.2-3.2 2.1-3.4 1.9-.2-.2.3-2.9 1.2-5.9 1.6-6.1 1.2-18-.9-22.4-1.9-4.2-4.2-2.9-4.9 2.9-.6 4.8-4.2 14.7-10.8 30-2.5 5.9-3.9 7.7-9.3 11.9-3.5 2.8-10.7 9.4-16 14.7l-9.6 9.8-.8-7.7c-4.2-45 23.9-78.6 67.1-80 1.7-.1 7.5.3 13 .8zm-235.8 25.5c24.1 3.2 42.5 8.6 63 18.6 36.8 18 69.8 51.2 86.9 87.4l4.5 9.5h8.7c15.8 0 28.4 4.6 40.4 14.5 14.4 12 22.4 27.3 23.5 45.2 1 16.4-3.4 29.9-12.9 39.4-5.7 5.7-10.9 8.3-18 9.3l-4.7.5-1.5-5.2c-3.7-12.8-13.4-24-26.1-30.3-6.7-3.3-8.5-3.8-17.4-4.2-8.2-.4-11.1-.1-16.9 1.7-15.4 4.7-27.9 17.2-33.1 33.3l-1.3 3.8H223.2l-1.3-3.8c-6.9-21.5-25.4-35.2-47.3-35.2-8.8 0-14.5 1.4-22.5 5.5-10.8 5.4-20.3 16.9-23.5 28.4-.9 3.4-2.1 6.1-2.5 6.1-.4 0-2.8-.7-5.3-1.6-8.9-3-17.7-15-22.8-30.9-3.1-9.8-3.9-32-1.6-45.5 6.8-39.1 32.8-79.6 68.1-106.1 29.2-21.9 66.2-36.5 103.3-40.9 11.7-1.3 36.6-1.1 48.9.5zM69.9 235.9c3.3 9.1 5.3 11.4 12.1 13.6 6 1.9 8.6 3.7 7.6 5.3-.3.6-3.7 2.2-7.5 3.7-3.8 1.4-7.5 3.3-8.2 4.1-.7.8-2.4 4.9-3.9 9.2-1.5 4.2-3.2 7.8-3.8 8-.5.1-1.8-2.1-2.7-5-3.9-11.9-4.8-12.7-18.8-18.3-2.1-.8-3.7-2-3.5-2.7.2-.6 3.9-2.6 8.1-4.3 8.5-3.4 9.9-4.8 12.8-13.2 1-3.2 2.1-6.4 2.4-7.1 1-2.7 2.8-.5 5.4 6.7zM45 348c1.2 2.3 3.2 4.6 4.5 5.2 3.1 1.4 3.1 2.2 0 4.2-1.4.9-3.3 3.3-4.2 5.1-1.9 4.1-2.9 4.4-3.9 1.2-.9-3-3.4-5.7-6.3-6.8l-2.4-1 4-3.7c2.2-2 4.3-4.7 4.7-6 .4-1.2.9-2.2 1.1-2.2.3 0 1.4 1.8 2.5 4zm141.2 84.2c9.5 4 17.8 16.7 17.8 27.3 0 10-7.3 21.5-16.7 26.1-5.7 2.8-20.3 2.7-25.9-.3-16.7-8.9-20.9-31.4-8.4-45.6 8.5-9.8 21.1-12.6 33.2-7.5zm286.5.5c5.3 2.5 10.4 7.7 13.9 14.3 1.4 2.6 1.9 5.6 1.9 12 0 7.6-.3 9.1-3 13.9-5.8 10.5-15.2 15.6-27.3 14.9-8-.5-13.2-2.8-18.3-8.1-6.1-6.2-8.4-12-8.4-20.7 0-9 2.4-14.9 8.3-20.8 9.2-9.2 21-11.2 32.9-5.5zm40.9 82.8c3.5 3.5 3 8.9-.9 11.9l-2.8 2.1H117.8l-2.4-2.8c-3.1-3.7-3.1-8.1.1-11.2l2.4-2.5h393.2l2.5 2.5zm-212.9 39.7c3 2.8 3.2 8.9.3 11.8-1.9 1.9-3.3 2-55 2h-53.1l-2.4-2.6c-3.1-3.4-3.3-8-.3-11.1l2.1-2.3h106.1l2.3 2.2zm145.8-1.6c1.9.8 4.5 5.5 4.5 8.4 0 1.1-1.1 3.2-2.5 4.5l-2.4 2.5h-36.3c-38.2-.1-38.2-.1-40.6-4.7-1.7-3.2-1.5-5.7.9-8.7l2-2.6h36.4c20 0 37.1.3 38 .6z" />
    <path
        d="M265.2 257.2c-4.1.5-12.4 2.2-18.5 3.7-41.8 10.6-75.7 36.5-95.4 73.1-3.7 6.8-9.3 20.7-9.3 23.1 0 .6 26.5.8 71.5.7l71.5-.2V256l-6.2.1c-3.5.1-9.6.6-13.6 1.1zm-15.7 35.2c9.7 4.5 16.5 15.3 16.5 26.3 0 5.9-3.1 13.4-7.9 19.1-5.2 6.2-12 8.7-22 8-8.2-.6-13.6-3.2-18.8-9.2-12.4-14.1-7.8-36.1 9.2-44.2 6.9-3.3 16.1-3.3 23 0zM301 306.6v50.9l66.5.3c36.6.2 66.5.1 66.5-.1s-1.1-3.7-2.5-7.8c-11.3-33.2-41.4-66.4-73-80.5-15.3-6.8-33.3-11.5-49.7-12.9l-7.8-.7v50.8zm57.6-14.2c11.2 5.2 17 15 16.2 27.4-.5 8.1-2.8 13.3-8.5 18.7-5.6 5.4-12.5 7.8-20.6 7.3-14.1-.9-24.2-10.7-25.4-24.8-2-21.5 19.4-37.4 38.3-28.6zM312.9 397.9c-3.4 2.7-3.2 8.6.5 11.7 2.5 2.3 3.5 2.4 15.7 2.4 12.5 0 13.1-.1 15.4-2.5 3.5-3.4 3.4-8.6-.1-11.4-2.4-1.9-4-2.1-15.9-2.1-11.5 0-13.6.3-15.6 1.9z" />
</svg>