<svg version="1.0" width="1em" height="1em" viewBox="0 0 512 512" xmlns="http://www.w3.org/2000/svg"><g fill="#437a49"><path d="M132.794 135.618c-8 .8-9.6 2.3-17.7 17.2l-6.3 11.4-7.9.3c-8.3.3-9.4.9-9.4 5.4 0 5 .9 5.8 6 5.8h4.9l-4.6 8.8c-3.5 6.9-4.6 10.1-5 15.2l-.5 6.5 38.8-.3c42.6-.3 47.5.2 52.7 4.8 1.8 1.5 6.4 8.5 10.2 15.4l7 12.6h8.2c7.6 0 8.3.2 10.2 2.6 2.7 3.4 3.5 8.2 2.3 12.7-.8 2.9-.7 3.7.5 4.1 2.7 1.1 13.9.6 15.1-.6.8-.8 1.2-4.6 1.2-10.5 0-6.6.5-10.3 1.6-12.5 1.3-2.5 1.5-6.1 1.2-21.8l-.3-18.8-4.8-9.1-4.7-9.1h4.9c5.2 0 6.1-.8 6.1-5.8 0-4.5-1.1-5.1-9.5-5.4l-8-.3-6.3-11.5c-8.4-15.4-9.4-16.2-18.4-17.1-8.6-.9-58.5-.9-67.5 0Zm71.7 6.4c2.8 1.4 21.3 34 20.8 36.7-.3 1.3-6.9 1.5-57.9 1.8-45.6.2-57.9 0-58.7-1.1-.8-.9 1.4-5.7 8.3-18.2 5.2-9.3 10.4-17.8 11.6-18.7 1.9-1.6 5.2-1.8 37.8-1.8 26.6 0 36.2.3 38.1 1.3zm-83.6 51.2c8.3 3.8 9.6 4.8 9.6 6.9 0 3.3-1.7 3.7-13.3 2.9-8.7-.5-10.4-.9-12.4-2.9-2.9-2.9-2.9-6.1-.1-9.1 3-3.2 5.2-2.9 16.2 2.2zm108.5-1.9c2.7 3.4 2.6 5.9-.2 8.8-2 2-3.7 2.4-12.4 2.9-11.6.8-13.3.4-13.3-3 0-2.1 1.3-3 9.3-6.8 10.9-5.2 13.8-5.5 16.6-1.9z"/><path d="M157.894 144.218c-1.1 2.8.7 3.5 9.2 3.5 8.3 0 8.4 0 8.4-2.5s-.1-2.5-8.5-2.5c-6.6 0-8.7.3-9.1 1.5zm29.6 7.3c-4.5 2.2-7.5 7.9-6.6 12.7.8 4.3 5.7 9.2 10 10 7 1.4 14.6-4.9 14.6-12 0-6-6.3-12.5-12.2-12.5-1.3 0-3.9.8-5.8 1.8zm129.5-16c-3.4.4-7.2 1.4-8.5 2.3-1.4.9-5.6 7.3-9.3 14.2l-6.9 12.6-8.1.3-8.2.3v10l4.8.3c2.6.2 4.7.5 4.7.8 0 .2-1.9 4.1-4.2 8.5l-4.3 8.1-.3 19.9c-.2 14.9 0 20.4 1 22.1.7 1.3 1.5 6.9 1.8 12.8l.5 10.5 7.2.3 7.3.3-1-2.6c-2.5-6.6-.1-16 4.3-17 1.2-.3 5.3-.6 9.2-.7l6.9-.3 4.4-8c8.7-16.1 10.6-18.6 15.2-21.3l4.5-2.7h87.5l-.5-6c-.4-4.2-1.9-8.5-4.8-14.4-2.3-4.6-4.3-8.8-4.5-9.2-.2-.4 1.8-.9 4.4-1.1 4.2-.3 4.9-.6 5.7-3.1.6-1.9.6-3.7-.2-5.3-1-2.2-1.6-2.4-8.9-2.4h-7.7l-7-12.7c-3.9-6.9-8.2-13.5-9.8-14.7-2.6-1.9-4.2-2-36-2.2-18.2-.1-35.9.1-39.2.4zm71.3 6.5c2.9 1.5 21.6 35.2 20.8 37.3-.8 2-116.4 2.1-117.2.1-.7-2 18.4-36.3 20.9-37.5 3.3-1.6 72.5-1.5 75.5.1zm-83.7 51.2c9.3 4.7 11.2 6.6 8.7 9.1-2.2 2.2-21 .8-24.4-1.8-4.6-3.7-1.8-11.8 4.1-11.8 1.4 0 6.6 2 11.6 4.5zm107.7-2.9c2.8 1.9 3 7.6.4 10.2-2.6 2.6-22.8 4-25 1.8-2.5-2.5-.5-4.5 9-9.1 10-4.9 12.2-5.3 15.6-2.9z"/><path d="M341.494 145.218c0 2.5.1 2.5 9 2.5s9 0 9-2.5-.1-2.5-9-2.5-9 0-9 2.5zm29.3 6.5c-6.1 3.7-7.9 10.8-4.3 16.8 4.1 6.7 13.3 7.8 18.8 2.2 6.2-6.1 4.4-16.4-3.5-19.6-4.4-1.9-7.2-1.7-11 .6zm-276.9 59.9c-2.7.3-6.1 1.3-7.5 2.2-1.3.9-5.9 8-10.2 15.8l-7.9 14.1h-8.9c-8.5 0-8.9.1-9.5 2.4-.3 1.3-.4 3.8-.2 5.7.3 3.4.3 3.4 6.1 3.7 3.1.2 5.7.5 5.7.7 0 .1-1.6 3.2-3.6 6.7-6.9 12.2-6.8 11.5-7.2 34.5-.3 17.9-.1 21.7 1.2 24.4.9 1.9 1.6 5.7 1.6 9.2 0 5.7.1 5.9 2.3 5.3 1.2-.3 5.4-.6 9.3-.6h7.2l.6-3.3c.3-1.7 1.9-5.9 3.5-9.3l2.9-6.1-2.8-1c-4.1-1.5-6.2-5.4-6.2-11.5-.1-6.3 2.3-11.5 5.5-12.3 1.2-.3 5.7-.6 10-.7l7.9-.3 7.4-13.4c4.1-7.3 7.9-14 8.5-14.7 1-1.2-2.2-1.4-20-1.4-17.3 0-21.3-.3-21.7-1.4-.7-1.9 20.5-40.5 23.1-41.9 1.4-.7 14.7-1.1 42.1-1.1 34.9 0 40.5.2 42.5 1.6 1.3.9 6.6 9.2 11.7 18.6 10.4 19 9.4 18.2 21.8 18.2 6 0 6.5-.2 7.4-2.6.6-1.5.7-3.9.2-5.7l-.8-3.2-9-.3-9-.3-7.6-13.7c-4.2-7.5-8.7-14.5-10.1-15.6-1.5-1.1-5-2.3-7.9-2.7-6.3-.9-71.1-.9-78.4 0zm-11.6 64.1c9.7 4.7 10.3 5.1 10 7.7-.3 2.6-.6 2.8-5.8 3.1-3 .2-8.8.1-12.9-.3-5.9-.6-7.9-1.2-9.7-3.1-3.1-3-3-6.8.1-9.9 3.5-3.6 6.6-3.1 18.3 2.5zm259.5-64.1c-7.1.9-9.4 3.4-17.8 19.1l-7 13h-8.7c-9.5 0-10.8.8-10.8 6.4 0 4.9.9 5.6 6.6 5.6 3 0 5.4.2 5.4.5 0 .2-2.4 5-5.2 10.5l-5.3 10.1-.3 20.2c-.3 16.9-.1 20.9 1.2 24.1 1.1 2.6 1.6 6.9 1.6 13.7 0 11.5 1.3 13.9 7.5 13.9 2.9 0 4.3-.8 8.1-4.7 3.5-3.8 4.6-5.7 5.1-9.3.3-2.5 2.1-7.4 4-10.9 1.8-3.5 3.2-6.4 3.1-6.5-3.5-1.4-6.5-3.7-7.5-5.6-1.7-3.4-1.6-12.5.2-16s3.3-3.9 14-4.2l7.9-.3 4.4-8c2.4-4.4 6.1-11 8.2-14.8l3.8-6.7h-21.3c-16.3 0-21.5-.3-22.3-1.3-.9-1 1.3-5.8 8.9-19.8 5.6-10.1 11.2-19.5 12.5-20.8l2.3-2.5h40.4c35.8 0 40.8.2 43 1.7 1.4.9 6.3 8.6 11.8 18.5l9.3 17 4.4.6c8.4 1.1 14.9.7 15.6-1 .9-2.4.7-6.3-.4-8.5-.9-1.6-2.2-1.9-9.8-1.9h-8.7l-7-13c-8.6-16.1-10.6-18.2-18.3-19.1-7-.9-71.7-.9-78.9 0zm-11.4 63.9c10.4 5.2 12.3 7.1 10.1 9.8-1.3 1.5-2.9 1.6-13 1.1-6.3-.3-12.3-.9-13.4-1.3-2.7-1-4.6-6.2-3.5-9.4 2.4-6.4 7.2-6.5 19.8-.2z"/><path d="M123.494 222.218v2.5h20v-5h-20zm248 0v2.5h20v-5h-20zm-216.5 7.4c-3.6 2.5-6.5 7.5-6.5 11.4 0 6.5 5.7 12.7 12.3 13.4 8.5 1 14.7-4.9 14.7-14 0-4-.5-5.3-3.3-8.4-2.9-3.1-4.1-3.7-8.8-4-4.2-.3-6 0-8.4 1.6zm250.5-1.2c-5.7 2.1-9.7 10.2-8 16.2 4 14 23.9 12.8 26.6-1.5.8-4.3-2.5-11.3-6.5-13.7-2.8-1.6-8.9-2.1-12.1-1zm-285 33.9c-5.4 2.3-6.6 3.8-15.2 19.6l-8.1 14.8h-9.1c-5 0-9.7.4-10.4.9-1.9 1.1-2.7 8.3-1.3 11 1 1.8 2.1 2.1 7.1 2.1h6l-5.1 9.4c-2.7 5.2-5.4 10.8-5.9 12.5l-.9 3.1h6c4.7 0 5.9-.3 5.9-1.6 0-2.3 5.5-7.4 8-7.4 1.2 0 6.6 2 11.9 4.5l9.6 4.4 19 .3c26.9.5 28.5 1.4 39.7 21.8l6.4 11.5 4.4.5c5.7.7 7 1.5 7 4.6 0 2.3.3 2.4 6.4 2.4 5.9 0 6.6.2 9 3 1.6 2 2.8 4.9 3.2 8l.7 5h19.7v9.5c0 11.3.2 11.5 11.8 11.5 10.9 0 11.2-.4 11.2-15.2 0-8.4.4-12.3 1.6-14.6 1.3-2.7 1.5-6.9 1.2-27.1l-.3-24-5.7-11-5.8-11 6.2-.3 6.2-.3.9-3.7c.6-2.6.5-4.5-.5-6.5-1.3-2.8-1.5-2.8-11-3.1l-9.7-.3-7.8-14.2c-8.7-15.9-11.2-19-16.9-20.6-2.5-.7-19.1-1.1-47.9-1.1-36.9.1-44.6.3-47.5 1.6zm94.4 6.8c2.9 1.2 4.8 4 14.7 22.2 6.3 11.5 11.4 21.8 11.4 22.9 0 2-.8 2-72.2 2.3l-72.3.2v-2.1c0-2 20.9-41 23.7-44.1.8-.9 2.5-1.9 3.7-2.1 1.1-.2 21.4-.5 44.9-.6 34.5-.1 43.4.2 46.1 1.3zm30.7 60.5c4.1 4.1 3.5 10-1.3 13-2 1.3-26.1 3.2-28.6 2.3-1.9-.7-2.7-5.2-1.1-6.7 2.3-2.1 23.2-11.5 25.7-11.5 1.3 0 3.7 1.3 5.3 2.9z"/><path d="M157.494 273.218v2.5h22v-5h-22zm37 7.7c-5.4 2.8-8.2 7.2-8.2 13.3 0 6.2 2.7 10.5 8.4 13.3 3.8 1.9 5.6 2.2 8.9 1.7 8.1-1.4 14-9.8 12.5-17.9-.9-4.8-5.9-10.3-10.4-11.6-5.2-1.4-6.2-1.3-11.2 1.2zm175.4-18.3c-4.9 2.2-5.9 3.6-15.3 20.8l-7.3 13.3h-9.2c-5 0-9.7.4-10.4.8-1.8 1.2-2.6 7.2-1.3 10.4 1 2.6 1.4 2.8 7.1 2.8h6.1l-4.7 8.6c-2.5 4.7-5.3 10.6-6 13.1l-1.4 4.6 4.6-.7c2.6-.3 5.3-.6 6-.6.8 0 1.4-.7 1.4-1.6 0-2.4 5.6-7.4 8.2-7.4 1.4 0 6.5 2 11.5 4.4l9.1 4.4 33.3.4c44.1.4 41.3-.9 55.8 25.7l8.3 15.1h9.4c5.3 0 10.4.5 11.6 1.1 6.3 3.4 6.3 21.4-.1 24.9-1.6.8-2.1 2-2.1 5 0 5.1 1.7 6 11.9 6 11 0 11.1-.2 11.1-14.6 0-8.4.4-12.3 1.5-14.5 1.4-2.5 1.6-6.9 1.3-27.4l-.3-24.4-5.7-11.1-5.7-11h6c5.6 0 6-.2 7-2.8 1.3-3.2.5-9.2-1.3-10.4-.7-.4-5.4-.8-10.5-.8h-9.1l-8.1-14.8c-4.4-8.2-8.9-15.6-9.9-16.5-5-4.6-6.6-4.7-53.9-4.7-41.5 0-45.1.2-48.9 1.9zm96.9 7c2.6 2.1 24.9 43 24.5 44.9-.3 1.6-5.6 1.7-72.3 1.7-65.2 0-72-.2-72.3-1.6-.3-1.6 20.6-40.7 23.5-44.1.8-.9 2.5-1.9 3.7-2.1 1.1-.3 22.2-.4 46.7-.3 36.1.1 44.9.4 46.2 1.5zm28.8 60c3.6 3.7 3.8 7.8.5 11.4-2.4 2.6-3.8 2.9-22.3 4.1-6.1.4-7.4.2-8.9-1.5-1.2-1.4-1.5-2.4-.8-3.9 1-2.3 22.6-13 26.2-13 1.3 0 3.7 1.3 5.3 2.9z"/><path d="M407.494 273.218v2.5h23v-5h-23zm37.3 7.5c-11.2 5.7-11.2 21.1 0 26.8 3.6 1.9 5.4 2.3 8.7 1.7 10.6-1.8 16.5-14.1 10.8-22.5-5.1-7.5-12.2-9.7-19.5-6zm-382.8 61.9c-16.7.9-16 .3-29.9 25.8l-7.7 14.2-11.2.3-11.1.3-1 3.3c-.6 2-.6 4.7 0 7l.9 3.7 6.8.3c3.8.2 6.7.6 6.5 1-.2.5-3 6.1-6.3 12.6l-6 11.8-.3 26.5c-.3 25.1-.2 26.7 1.7 30.4 1.8 3.4 2.1 5.8 2.1 16.7 0 8.6.4 13.2 1.2 14 1.6 1.6 21 1.6 22.6 0 .8-.8 1.2-4.8 1.2-11.5v-10.3h145v9.9c0 13 .1 13.1 12.6 13.1 13.9 0 13.4.5 13.4-15.3 0-11.3.3-13.9 2-17.2 1.8-3.6 2-5.9 2-27 0-27.2-.6-30.3-8.4-44.4l-5.3-9.6 6.6-.3c3.7-.2 6.9-.8 7.3-1.5 1-1.6 1-10.8 0-12.4-.5-.8-4.5-1.3-11.7-1.5l-11-.3-8.6-15.8c-4.8-8.7-9.7-17-11-18.4-5.3-5.5-4.9-5.5-49.8-5.8-22.9-.2-46.5 0-52.6.4zm95.9 10.1c1.4 1.4 8.2 13 15.2 25.7 10.5 19.4 12.4 23.5 11.4 24.8-1.1 1.3-11 1.5-79.5 1.5-43.1 0-79-.3-79.9-.6-.9-.3-1.6-1.3-1.6-2.1 0-1.9 25.8-49 27.4-50.1 2.5-1.6 15.1-2 58.8-1.8l45.8.1zm-116.4 69.3c10 5 12.6 6.7 12.8 8.5.6 4.2-1.4 5.2-9.7 5.1-22.6-.2-28.1-2.2-28.1-10.3.1-4.3 1.2-6.5 4.5-8.4 3.7-2.1 8-1.1 20.5 5.1zm148.1-3.4c3.7 3.8 3.9 8.8.5 12.8-2.1 2.4-3.3 2.8-10.2 3.4-4.4.4-11.6.8-16.1.8-7 .1-8.4-.2-9.2-1.7-2.2-4.1-.3-5.8 12.7-12 14.7-7.1 18-7.5 22.3-3.3zm-56.6 52.1v6.5l-27.9.3c-19.7.2-28.3-.1-29.2-.9-1.7-1.4-1.9-10-.2-11.7.9-.9 8.3-1.2 29.3-1l28 .3z"/><path d="M91.894 354.118c-.3.8-.4 2.3-.2 3.3.3 1.6 1.7 1.8 12.6 2.1l12.2.3v-7.1h-12c-9.6 0-12.2.3-12.6 1.4zm39.6 10.8c-4.5 3.1-6.9 6.6-7.6 11-1.8 10.9 5.6 20 16.1 20 17.3 0 23.6-22.6 8.7-31-5.4-3-12.8-3-17.2 0zm207.5-22.3c-6 .4-12 1.2-13.1 1.8-3.8 2.2-6.9 6.7-15.5 22.7l-8.4 15.6h-11.1c-9.3 0-11.3.3-11.8 1.6-1 2.7-.6 11 .6 12.2.7.7 3.9 1.2 7.5 1.2h6.2l-5.9 11.2c-7.7 14.8-8.2 18.1-7.8 45.8.3 19.5.5 23 2.1 25.3 1.4 2.2 1.7 4.9 1.7 15.6 0 16.4-.3 16.1 13 16.1 12.9 0 13-.1 13-13.1v-9.9h145v10.3c0 6.7.4 10.7 1.2 11.5 1.6 1.6 21 1.6 22.6 0 .8-.8 1.2-5.4 1.2-14 0-10.9.3-13.4 2-16.5 1.8-3.5 2-5.7 2-28.9 0-28.5-.2-29.4-8.4-44.2-2.5-4.5-4.6-8.4-4.6-8.7 0-.2 3-.5 6.8-.7l6.7-.3.9-3.7c.6-2.3.6-5 0-7l-1-3.3-11.1-.3-11.1-.3-9.3-17c-12.1-22.3-11.9-22.2-29.3-23-15.7-.8-68.7-.8-84.1 0zm95.4 9.1c2.4 1.6 28.1 47.4 28.1 50.1 0 .9-.7 2-1.6 2.3-.9.3-36.8.6-79.9.6-67.8 0-78.4-.2-79.5-1.5-1-1.2 1.1-5.6 11.5-24.7 7-12.8 13.6-24.2 14.6-25.3 2.9-3 9.2-3.3 59.5-3.1 38.2.1 45.4.3 47.3 1.6zm-115.8 70.1c13.3 6.4 15 8 12.8 12-1.1 2.2-1.4 2.2-15.6 1.5-15.7-.7-19.7-1.8-21.3-6.2-1.7-4.4-1.1-7.4 1.9-10.5 4.3-4.2 7.4-3.8 22.2 3.2zm147.4-4.5c3.4 2.2 5 7.6 3.3 11-2.6 5.4-5.1 6.3-20.5 7-15.3.7-17.3.3-17.3-4.1 0-3 .6-3.4 14.5-9.9 12.7-5.9 16.1-6.6 20-4zm-55.6 47.8c.7.8 1.1 3.7.9 6.8l-.3 5.3h-58l-.3-5.4c-.2-2.9-.1-6 .2-6.7.8-2.1 55.8-2 57.5 0z"/><path d="M369.494 356.218v3.6l12.3-.3 12.2-.3v-6l-12.2-.3-12.3-.3zm39.8 8.5c-14.7 7.8-8.7 31 8 31.2 14.4.1 22.3-15.5 13.6-26.9-4.8-6.3-14.2-8.2-21.6-4.3z"/></g></svg>