<svg width="1em" height="1em" viewBox="0 0 48 48" xmlns="http://www.w3.org/2000/svg"><g fill="#437a49"><path fill="#437a49" d="M16.667 26.667A5.332 5.332 0 0 1 11.333 32 5.332 5.332 0 0 1 6 26.667a5.332 5.332 0 0 1 5.333-5.334 5.332 5.332 0 0 1 5.334 5.334"/><path fill-rule="evenodd" d="M11.333 29.333a2.667 2.667 0 1 0 0-5.333 2.667 2.667 0 1 0 0 5.333m0 2.667a5.332 5.332 0 0 0 5.334-5.333 5.332 5.332 0 0 0-5.334-5.334A5.332 5.332 0 0 0 6 26.667 5.332 5.332 0 0 0 11.333 32" clip-rule="evenodd"/><path d="M0 40.728c0-4.032 7.55-6.061 11.333-6.061 3.783 0 11.334 2.03 11.334 6.06V48H0Z"/><path fill-rule="evenodd" d="M3.112 39.977c-.421.416-.445.655-.445.751v4.605H20v-4.606c0-.094-.024-.334-.445-.75-.446-.438-1.18-.909-2.187-1.34-2.027-.868-4.501-1.304-6.035-1.304-1.533 0-4.009.436-6.034 1.304-1.007.431-1.742.902-2.187 1.34m8.221-5.31C7.551 34.667 0 36.697 0 40.727V48h22.667v-7.273c0-4.028-7.551-6.06-11.334-6.06" clip-rule="evenodd"/><path d="M42 26.667A5.332 5.332 0 0 1 36.667 32a5.332 5.332 0 0 1-5.334-5.333 5.332 5.332 0 0 1 5.334-5.334A5.332 5.332 0 0 1 42 26.667"/><path fill-rule="evenodd" d="M36.667 29.333a2.667 2.667 0 1 0 0-5.333 2.667 2.667 0 1 0 0 5.333m0 2.667A5.332 5.332 0 0 0 42 26.667a5.332 5.332 0 0 0-5.333-5.334 5.332 5.332 0 0 0-5.334 5.334A5.332 5.332 0 0 0 36.667 32" clip-rule="evenodd"/><path d="M29.333 24A5.332 5.332 0 0 1 24 29.333 5.332 5.332 0 0 1 18.667 24 5.332 5.332 0 0 1 24 18.667 5.332 5.332 0 0 1 29.333 24"/><path fill-rule="evenodd" d="M24 26.667a2.667 2.667 0 1 0 0-5.334 2.667 2.667 0 1 0 0 5.334m0 2.666A5.332 5.332 0 0 0 29.333 24 5.332 5.332 0 0 0 24 18.667 5.332 5.332 0 0 0 18.667 24 5.332 5.332 0 0 0 24 29.333" clip-rule="evenodd"/><path d="M22.667 9.11a6.444 6.444 0 0 0-6.444-6.443h-4.226a6.664 6.664 0 0 0-.241 13.324L12 16v2.667S22.667 17.11 22.667 9.11m4-2.13A6.981 6.981 0 0 1 33.648 0h7.685a6.667 6.667 0 0 1 0 13.333h-2.666v4s-12-1.685-12-10.352m-1.334 33.747c0-4.032 7.551-6.061 11.334-6.061 3.782 0 11.333 2.03 11.333 6.06V48H25.333Z"/><path fill-rule="evenodd" d="M28.445 39.977c-.421.416-.445.655-.445.751v4.605h17.333v-4.606c0-.094-.024-.334-.445-.75-.445-.438-1.18-.909-2.187-1.34-2.026-.868-4.501-1.304-6.034-1.304-1.534 0-4.01.436-6.035 1.304-1.007.431-1.741.902-2.187 1.34m8.222-5.31c-3.783 0-11.334 2.03-11.334 6.06V48H48v-7.273c0-4.028-7.55-6.06-11.333-6.06m-12.667 4v-.607c0-2.236-2.463-3.857-5.34-4.857A12.533 12.533 0 0 1 24 32a12.533 12.533 0 0 1 5.34 1.203c-2.877 1-5.34 2.621-5.34 4.857Z" clip-rule="evenodd"/><path fill-rule="evenodd" d="M24 38.667v-.607c0-1.19.699-2.208 1.787-3.05l.188-.14c.929-.674 2.106-1.23 3.365-1.666a12.667 12.667 0 0 0-3.957-1.127 12.4 12.4 0 0 0-2.766 0 12.667 12.667 0 0 0-3.957 1.126c1.257.437 2.436.993 3.364 1.666q.096.07.188.142c1.09.84 1.787 1.858 1.787 3.049z" clip-rule="evenodd"/></g></svg>