<svg width="1em" height="1em" viewBox="0 0 512 512" xmlns="http://www.w3.org/2000/svg"><path fill="#437a49" d="M255.692 0C176.79 0 112.614 64.176 112.614 143.078s64.176 143.078 143.078 143.078S398.77 221.98 398.77 143.078 334.594 0 255.692 0m-9.168 34.258L233.566 73.05l57.39-6.012-5.707-19.214 16.095 4.457v21.315l25.141 1.64-4.917-19.128 13.214-7.654c27.02 22.593 44.177 56.562 44.177 94.624 0 18.345-3.99 35.738-11.143 51.367l-28.759 4.867v34.645a123.267 123.267 0 0 1-17.718 13.526l-12.345-19.203-24.05 6.56 6.758 26.178a123.708 123.708 0 0 1-36.01 5.327c-34.133 0-64.976-13.796-87.274-36.128l21.968-3.029 14.759-28.97-47.009-23.502 33.343-28.424-28.968-24.048-29.599 9.864c3.425-39.014 24.932-72.753 56.124-92.8l6.27 50.139zm42.791 70.678-39.808 25.507 34.785 30.92 25.124-7.344-2.32 30.147 45.994-11.595-17.394-39.421-27.827.386 24.736-21.257-43.288-7.343zm-41.352 44.445-21.259 9.275 15.073 11.209zm-49.926 3.472L183.28 170.34l40.884 28.735zm65.772 9.668-15.073 28.216 36.331 24.735-12.756-18.166 15.847-18.938zM40.161 192.672c-9.705-.15-19.638 12.21-19.695 43.894-.086 48.595-4.794 62.312 17.695 117.27 16.49 40.302 23.885 71.279 76.654 96.31 6.252 22.036 3.757 27.218-.484 46.049-3.958 17.58 36.785 20.812 66.624 6.001 32.017-17.464 29.33-65.548 23.611-98.156-6.652-37.92-27.581-45.801-45.722-61.999-18.837-26.937-23.22-75.735-53.771-95.42-6.38-4.111-38.929-8.285 5.791 103.392-58.96-14.603-48.22-82.295-52.484-132.413-1.27-14.925-9.656-24.797-18.219-24.929Zm431.062 0c-8.563.132-16.948 10.003-18.218 24.929-4.264 50.117 6.476 117.81-52.485 132.412 44.72-111.678 12.172-107.503 5.792-103.393-30.55 19.686-34.934 68.484-53.771 95.423-18.14 16.196-39.072 24.077-45.723 61.997-5.72 32.608-8.406 80.692 23.612 98.156 29.838 14.81 70.581 11.58 66.622-6.001-4.24-18.831-6.734-24.013-.483-46.05 52.77-25.03 60.164-56.007 76.655-96.308 22.488-54.959 17.78-68.676 17.694-117.27-.057-31.686-9.99-44.046-19.695-43.895" style="stroke-width:1.10063"/></svg>