<svg width="1em" height="1em" viewBox="0 0 16 16" xmlns="http://www.w3.org/2000/svg"><path fill="#437a49" d="m7.66 1.596-.002.002.002.002v-.004zM2 4l.8 2.51a5.2 5.2 0 0 0-1.247 1.465L0 8s-.17 4 1 4h.54a5.3 5.3 0 0 0 1.444 1.59L3 16h1.08C5.39 16 6 16 6 15.25v-.39a8.3 8.3 0 0 0 3.05-.008L9 15.25c0 .75.62.75 1.94.75H12v-2.39a4.8 4.8 0 0 0 1.902-2.717c.057-.027.114-.024.172-.024.058 0 .115-.003.172-.01.251-.046.48-.144.68-.283a1.65 1.65 0 0 0 .592-.765c.028-.094.048-.19.062-.292v-.01c.221-.259.373-.59.42-.95a1.8 1.8 0 0 0-.072-.823l.002.014a1.25 1.25 0 0 0-.3-.51.83.83 0 0 0-.394-.238c.074.117.142.252.192.396.056.148.09.303.101.467a1.8 1.8 0 0 1 0 .424 1 1 0 0 0-.14-.293 1.2 1.2 0 0 0-.48-.383.94.94 0 0 0-1.196.383c-.05.082-.09.17-.12.266-1.181-1.968-3.31-3.272-5.741-3.272-.124 0-.248.005-.37.012a8.2 8.2 0 0 0-2.23.312C5.19 4.88 4.62 4 2 4Zm5.586 2.03h.101c.674 0 1.324.078 1.95.232.126.024.261.18.261.37a.4.4 0 0 1-.02.12.48.48 0 0 1-.345.246h-.152a7.2 7.2 0 0 0-1.707-.2h-.088c-.59 0-1.166.07-1.717.202a.5.5 0 0 1-.588-.246.39.39 0 0 1 .295-.504 8 8 0 0 1 2.01-.22ZM3.51 7.75a.75.75 0 0 1 0 1.5.75.75 0 0 1 0-1.5zm11.01.55a.33.33 0 0 1 .113.04.48.48 0 0 1 .306.447v.002a1.5 1.5 0 0 1 0 .418 1.3 1.3 0 0 1-.283.022l.004.021a.44.44 0 0 1-.459-.248.6.6 0 0 1 0-.566.33.33 0 0 1 .197-.13.33.33 0 0 1 .122-.005zM14 9.69a.992.992 0 0 0 .6.2h.021l-.04.04a1.2 1.2 0 0 1-.454.199L14 10.13Z"/><path fill="#437a49" d="M7.5 0a2.25 2.25 0 0 0 0 4.5 2.25 2.25 0 0 0 0-4.5zm0 .75a1.501 1.501 0 1 1-.002 3.002A1.501 1.501 0 0 1 7.5.75Z"/></svg>